<svg width="169" height="50" viewBox="0 0 169 50" fill="none" xmlns="http://www.w3.org/2000/svg">
<g filter="url(#filter0_f_820_37)">
<path d="M13.5334 8.27273V41H8.59553V8.27273H13.5334ZM25.119 26.4261V41H20.3409V16.4545H24.9272V20.4496H25.2308C25.7955 19.1499 26.6797 18.1058 27.8835 17.3175C29.098 16.5291 30.6268 16.1349 32.4698 16.1349C34.1424 16.1349 35.6072 16.4865 36.8643 17.1896C38.1214 17.8821 39.0962 18.9155 39.7887 20.2898C40.4812 21.6641 40.8274 23.3633 40.8274 25.3874V41H36.0494V25.9627C36.0494 24.1836 35.5859 22.7933 34.6591 21.7919C33.7322 20.7798 32.4592 20.2738 30.8398 20.2738C29.7319 20.2738 28.7464 20.5135 27.8835 20.9929C27.0313 21.4723 26.3548 22.1754 25.854 23.1023C25.364 24.0185 25.119 25.1264 25.119 26.4261ZM65.6286 22.4471L61.2979 23.2141C61.1168 22.6602 60.8292 22.1328 60.435 21.6321C60.0515 21.1314 59.5295 20.7212 58.869 20.4016C58.2085 20.082 57.3828 19.9222 56.392 19.9222C55.0391 19.9222 53.9098 20.2259 53.0043 20.8331C52.0987 21.4297 51.646 22.2021 51.646 23.1502C51.646 23.9705 51.9496 24.631 52.5568 25.1317C53.1641 25.6325 54.1442 26.0426 55.4972 26.3622L59.3963 27.2571C61.6548 27.7791 63.3381 28.5835 64.446 29.6701C65.554 30.7567 66.108 32.1683 66.108 33.9048C66.108 35.375 65.6818 36.6854 64.8295 37.8359C63.9879 38.9759 62.8107 39.8707 61.2979 40.5206C59.7958 41.1705 58.054 41.4954 56.0724 41.4954C53.3239 41.4954 51.0813 40.9094 49.3448 39.7376C47.6083 38.555 46.543 36.8771 46.1488 34.7038L50.767 34.0007C51.0547 35.2045 51.646 36.1154 52.5408 36.7333C53.4357 37.3406 54.6023 37.6442 56.0405 37.6442C57.6065 37.6442 58.8583 37.3192 59.7958 36.6694C60.7333 36.0089 61.2021 35.2045 61.2021 34.2564C61.2021 33.4893 60.9144 32.8448 60.3391 32.3228C59.7745 31.8008 58.9062 31.4066 57.7344 31.1403L53.5795 30.2294C51.2891 29.7074 49.5952 28.8764 48.4979 27.7365C47.4112 26.5966 46.8679 25.1531 46.8679 23.4059C46.8679 21.957 47.2727 20.6893 48.0824 19.6026C48.892 18.516 50.0107 17.669 51.4382 17.0618C52.8658 16.4439 54.5011 16.1349 56.3441 16.1349C58.9968 16.1349 61.0849 16.7102 62.6083 17.8608C64.1317 19.0007 65.1385 20.5295 65.6286 22.4471ZM82.8192 16.4545V20.2898H69.4118V16.4545H82.8192ZM73.0074 10.5739H77.7854V33.793C77.7854 34.7198 77.9239 35.4176 78.2009 35.8864C78.4779 36.3445 78.8348 36.6587 79.2716 36.8292C79.719 36.989 80.2037 37.0689 80.7258 37.0689C81.1093 37.0689 81.4449 37.0423 81.7325 36.989C82.0202 36.9357 82.2439 36.8931 82.4037 36.8612L83.2666 40.8082C82.9896 40.9148 82.5954 41.0213 82.0841 41.1278C81.5727 41.245 80.9335 41.3089 80.1665 41.3196C78.9094 41.3409 77.7375 41.1172 76.6508 40.6484C75.5642 40.1797 74.6853 39.4553 74.0141 38.4751C73.343 37.495 73.0074 36.2646 73.0074 34.7837V10.5739ZM98.4197 41.4954C96.0014 41.4954 93.9187 40.9787 92.1715 39.9453C90.435 38.9013 89.0927 37.4364 88.1445 35.5508C87.207 33.6545 86.7383 31.4332 86.7383 28.8871C86.7383 26.3729 87.207 24.157 88.1445 22.2393C89.0927 20.3217 90.4137 18.8249 92.1076 17.7489C93.8121 16.6729 95.8043 16.1349 98.0842 16.1349C99.4691 16.1349 100.811 16.364 102.111 16.8221C103.411 17.2802 104.577 17.9993 105.611 18.9794C106.644 19.9595 107.459 21.2326 108.056 22.7987C108.652 24.354 108.951 26.245 108.951 28.4716V30.1655H89.4389V26.5859H104.268C104.268 25.3288 104.013 24.2156 103.501 23.2461C102.99 22.266 102.271 21.4936 101.344 20.929C100.428 20.3643 99.3519 20.082 98.1161 20.082C96.7738 20.082 95.6019 20.4123 94.6005 21.0728C93.6097 21.7227 92.8427 22.5749 92.2994 23.6296C91.7667 24.6736 91.5004 25.8082 91.5004 27.0334V29.8299C91.5004 31.4705 91.788 32.8661 92.3633 34.0167C92.9492 35.1673 93.7642 36.0462 94.8082 36.6534C95.8523 37.25 97.0721 37.5483 98.4677 37.5483C99.3732 37.5483 100.199 37.4205 100.945 37.1648C101.69 36.8984 102.335 36.5043 102.878 35.9822C103.422 35.4602 103.837 34.8157 104.125 34.0487L108.647 34.8636C108.285 36.1953 107.635 37.3619 106.697 38.3633C105.771 39.354 104.604 40.1264 103.198 40.6804C101.802 41.2237 100.21 41.4954 98.4197 41.4954ZM119.03 8.27273V41H114.252V8.27273H119.03ZM130.236 8.27273V41H125.458V8.27273H130.236ZM147.003 41.4954C144.702 41.4954 142.694 40.968 140.979 39.9134C139.264 38.8587 137.932 37.3832 136.984 35.4869C136.036 33.5906 135.562 31.3746 135.562 28.8391C135.562 26.293 136.036 24.0664 136.984 22.1594C137.932 20.2525 139.264 18.7717 140.979 17.717C142.694 16.6623 144.702 16.1349 147.003 16.1349C149.304 16.1349 151.313 16.6623 153.028 17.717C154.743 18.7717 156.075 20.2525 157.023 22.1594C157.971 24.0664 158.445 26.293 158.445 28.8391C158.445 31.3746 157.971 33.5906 157.023 35.4869C156.075 37.3832 154.743 38.8587 153.028 39.9134C151.313 40.968 149.304 41.4954 147.003 41.4954ZM147.019 37.4844C148.511 37.4844 149.747 37.0902 150.727 36.3018C151.707 35.5135 152.431 34.4641 152.9 33.1538C153.379 31.8434 153.619 30.3999 153.619 28.8232C153.619 27.2571 153.379 25.8189 152.9 24.5085C152.431 23.1875 151.707 22.1275 150.727 21.3285C149.747 20.5295 148.511 20.13 147.019 20.13C145.517 20.13 144.271 20.5295 143.28 21.3285C142.3 22.1275 141.57 23.1875 141.091 24.5085C140.622 25.8189 140.388 27.2571 140.388 28.8232C140.388 30.3999 140.622 31.8434 141.091 33.1538C141.57 34.4641 142.3 35.5135 143.28 36.3018C144.271 37.0902 145.517 37.4844 147.019 37.4844Z" fill="url(#paint0_linear_820_37)"/>
</g>
<defs>
<filter id="filter0_f_820_37" x="-3" y="-4" width="180" height="56" filterUnits="userSpaceOnUse" color-interpolation-filters="sRGB">
<feFlood flood-opacity="0" result="BackgroundImageFix"/>
<feBlend mode="normal" in="SourceGraphic" in2="BackgroundImageFix" result="shape"/>
<feGaussianBlur stdDeviation="4" result="effect1_foregroundBlur_820_37"/>
</filter>
<linearGradient id="paint0_linear_820_37" x1="74" y1="-4" x2="102.5" y2="51" gradientUnits="userSpaceOnUse">
<stop stop-color="#ED7DFF"/>
<stop offset="1" stop-color="#FF2640"/>
</linearGradient>
</defs>
</svg>
