<svg width="168" height="48" viewBox="0 0 168 48" fill="none" xmlns="http://www.w3.org/2000/svg">
<g filter="url(#filter0_f_820_39)">
<path d="M13.1566 7.27273V40H7.22798V7.27273H13.1566ZM25.1057 25.6179V40H19.3209V15.4545H24.8501V19.6254H25.1377C25.7023 18.2511 26.6025 17.1591 27.8383 16.3494C29.0848 15.5398 30.6242 15.1349 32.4566 15.1349C34.1505 15.1349 35.626 15.4972 36.8831 16.2216C38.1508 16.946 39.1309 17.9954 39.8234 19.3697C40.5265 20.744 40.8728 22.4112 40.8621 24.3714V40H35.0773V25.2663C35.0773 23.6257 34.6512 22.342 33.7989 21.4151C32.9573 20.4883 31.7907 20.0249 30.2993 20.0249C29.2872 20.0249 28.387 20.2486 27.5986 20.696C26.8209 21.1328 26.2084 21.7667 25.7609 22.5977C25.3241 23.4286 25.1057 24.4354 25.1057 25.6179ZM66.1427 21.9425L60.8692 22.5178C60.7201 21.9851 60.4591 21.4844 60.0862 21.0156C59.724 20.5469 59.2339 20.1687 58.616 19.881C57.9981 19.5934 57.2417 19.4496 56.3469 19.4496C55.143 19.4496 54.1309 19.7106 53.3106 20.2326C52.501 20.7546 52.1015 21.4311 52.1121 22.2621C52.1015 22.9759 52.3625 23.5565 52.8952 24.0039C53.4385 24.4513 54.3334 24.8189 55.5798 25.1065L59.7666 26.0014C62.089 26.5021 63.8149 27.2958 64.9442 28.3825C66.0841 29.4691 66.6594 30.8913 66.67 32.6491C66.6594 34.1939 66.2066 35.5575 65.3117 36.7401C64.4275 37.9119 63.197 38.8281 61.6203 39.4886C60.0436 40.1491 58.2325 40.4794 56.1871 40.4794C53.1828 40.4794 50.7645 39.8509 48.9321 38.5938C47.0997 37.326 46.0077 35.5629 45.6562 33.3043L51.2971 32.761C51.5528 33.869 52.0961 34.7053 52.9271 35.2699C53.7581 35.8345 54.8394 36.1168 56.1711 36.1168C57.5454 36.1168 58.648 35.8345 59.479 35.2699C60.3206 34.7053 60.7414 34.0075 60.7414 33.1765C60.7414 32.4734 60.4697 31.8928 59.9264 31.4347C59.3937 30.9766 58.5628 30.625 57.4335 30.38L53.2467 29.5011C50.8923 29.011 49.1505 28.1854 48.0212 27.0241C46.892 25.8523 46.3327 24.3714 46.3433 22.5817C46.3327 21.0689 46.7428 19.7585 47.5738 18.6506C48.4154 17.532 49.5819 16.669 51.0734 16.0618C52.5756 15.4439 54.3067 15.1349 56.267 15.1349C59.1434 15.1349 61.4072 15.7475 63.0585 16.9727C64.7204 18.1978 65.7485 19.8544 66.1427 21.9425ZM83.6968 15.4545V19.929H69.5864V15.4545H83.6968ZM73.07 9.57386H78.8548V32.6172C78.8548 33.3949 78.972 33.9915 79.2064 34.407C79.4514 34.8118 79.771 35.0888 80.1652 35.2379C80.5594 35.3871 80.9962 35.4616 81.4756 35.4616C81.8378 35.4616 82.1681 35.435 82.4664 35.3817C82.7753 35.3285 83.0097 35.2805 83.1695 35.2379L84.1443 39.7603C83.8353 39.8668 83.3932 39.984 82.8179 40.1119C82.2533 40.2397 81.5608 40.3143 80.7405 40.3356C79.2916 40.3782 77.9866 40.1598 76.8254 39.6804C75.6642 39.1903 74.7426 38.4339 74.0608 37.4112C73.3896 36.3885 73.0594 35.1101 73.07 33.576V9.57386ZM99.1376 40.4794C96.6767 40.4794 94.5513 39.968 92.7615 38.9453C90.9824 37.9119 89.6135 36.4524 88.6547 34.5668C87.6958 32.6705 87.2164 30.4386 87.2164 27.8711C87.2164 25.3462 87.6958 23.1303 88.6547 21.2234C89.6241 19.3058 90.9771 17.8143 92.7136 16.7489C94.4501 15.6729 96.4902 15.1349 98.834 15.1349C100.347 15.1349 101.774 15.38 103.117 15.87C104.47 16.3494 105.663 17.0952 106.696 18.1072C107.74 19.1193 108.561 20.4084 109.157 21.9744C109.754 23.5298 110.052 25.3835 110.052 27.5355V29.3093H89.9331V25.4102H104.507C104.496 24.3022 104.257 23.3168 103.788 22.4538C103.319 21.5803 102.664 20.8931 101.822 20.3924C100.991 19.8917 100.022 19.6413 98.9139 19.6413C97.7314 19.6413 96.6926 19.929 95.7978 20.5043C94.9029 21.0689 94.2051 21.8146 93.7044 22.7415C93.2143 23.6577 92.964 24.6644 92.9533 25.7617V29.1655C92.9533 30.593 93.2143 31.8182 93.7363 32.8409C94.2583 33.853 94.9881 34.6307 95.9256 35.174C96.8631 35.7067 97.9604 35.973 99.2175 35.973C100.059 35.973 100.821 35.8558 101.503 35.6214C102.184 35.3764 102.776 35.0195 103.276 34.5508C103.777 34.082 104.155 33.5014 104.411 32.8089L109.812 33.4162C109.471 34.8437 108.822 36.0902 107.863 37.1555C106.915 38.2102 105.7 39.0305 104.219 39.6165C102.738 40.1918 101.045 40.4794 99.1376 40.4794ZM120.731 7.27273V40H114.946V7.27273H120.731ZM132.464 7.27273V40H126.679V7.27273H132.464ZM149.119 40.4794C146.722 40.4794 144.645 39.9521 142.887 38.8974C141.129 37.8427 139.766 36.3672 138.796 34.4709C137.837 32.5746 137.358 30.3587 137.358 27.8232C137.358 25.2876 137.837 23.0664 138.796 21.1594C139.766 19.2525 141.129 17.7717 142.887 16.717C144.645 15.6623 146.722 15.1349 149.119 15.1349C151.516 15.1349 153.594 15.6623 155.352 16.717C157.109 17.7717 158.468 19.2525 159.427 21.1594C160.396 23.0664 160.881 25.2876 160.881 27.8232C160.881 30.3587 160.396 32.5746 159.427 34.4709C158.468 36.3672 157.109 37.8427 155.352 38.8974C153.594 39.9521 151.516 40.4794 149.119 40.4794ZM149.151 35.8452C150.451 35.8452 151.538 35.4883 152.411 34.7745C153.285 34.0501 153.935 33.0806 154.361 31.8661C154.798 30.6516 155.016 29.2987 155.016 27.8072C155.016 26.305 154.798 24.9467 154.361 23.7322C153.935 22.5071 153.285 21.5323 152.411 20.8079C151.538 20.0835 150.451 19.7212 149.151 19.7212C147.82 19.7212 146.712 20.0835 145.828 20.8079C144.954 21.5323 144.299 22.5071 143.862 23.7322C143.436 24.9467 143.223 26.305 143.223 27.8072C143.223 29.2987 143.436 30.6516 143.862 31.8661C144.299 33.0806 144.954 34.0501 145.828 34.7745C146.712 35.4883 147.82 35.8452 149.151 35.8452Z" fill="white"/>
</g>
<defs>
<filter id="filter0_f_820_39" x="-3" y="-4" width="178" height="54" filterUnits="userSpaceOnUse" color-interpolation-filters="sRGB">
<feFlood flood-opacity="0" result="BackgroundImageFix"/>
<feBlend mode="normal" in="SourceGraphic" in2="BackgroundImageFix" result="shape"/>
<feGaussianBlur stdDeviation="3.5" result="effect1_foregroundBlur_820_39"/>
</filter>
</defs>
</svg>
